<svg xmlns="http://www.w3.org/2000/svg" width="18" height="16" viewBox="0 0 18 16" shape-rendering="crispEdges">
  <rect width="18" height="16" fill="#404040"/><path fill="#808080" d="M0 0h18v1H1v15H0z"/><path fill="#555555" d="M1 1h16v1H2v13H1z"/>
  <path fill="#000000" d="M0 15h18v1H0zM17 0h1v16h-1z"/><path fill="#202020" d="M1 14h16v1H1zM16 1h1v14h-1z"/>
  <path fill="#c0c0c0" transform="translate(-1 -1)" d="M5 4h2v2h2v2h2V6h2V4h2v2h-2v2h-2v2h2v2h2v2h-2v-2h-2v-2H9v2H7v2H5v-2h2v-2h2V8H7V6H5z"/>
</svg>
